<?xml version="1.0" standalone="no"?>
<!DOCTYPE svg PUBLIC "-//W3C//DTD SVG 20010904//EN"
 "http://www.w3.org/TR/2001/REC-SVG-20010904/DTD/svg10.dtd">
<svg version="1.0" xmlns="http://www.w3.org/2000/svg"
 width="90.000000pt" height="90.000000pt" viewBox="0 0 90.000000 90.000000"
 preserveAspectRatio="xMidYMid meet">
<metadata>
Created by potrace 1.14, written by Peter Selinger 2001-2017
</metadata>
<g transform="translate(0.000000,90.000000) scale(0.100000,-0.100000)"
fill="#000000" stroke="none">
<path d="M0 450 l0 -450 450 0 450 0 0 450 0 450 -450 0 -450 0 0 -450z m696
84 c30 -18 60 -48 79 -78 27 -44 30 -58 30 -126 0 -68 -3 -82 -30 -126 -19
-30 -49 -60 -79 -79 -44 -27 -58 -30 -126 -30 -68 0 -82 3 -126 30 -159 99
-150 335 18 419 74 38 163 34 234 -10z"/>
</g>
</svg>
